<?xml version="1.0" encoding="UTF-8"?>
<svg id="Calque_1" xmlns="http://www.w3.org/2000/svg" xmlns:xlink="http://www.w3.org/1999/xlink" version="1.1" viewBox="0 0 64 64">
  <!-- Generator: Adobe Illustrator 30.0.0, SVG Export Plug-In . SVG Version: 2.1.1 Build 123)  -->
  <defs>
    <style>
      .st0 {
        fill: #0af;
      }

      .st1 {
        fill: #ebebeb;
      }

      .st2, .st3 {
        fill: #fff;
      }

      .st4 {
        fill: #97dcff;
      }

      .st5 {
        fill: #63cdf7;
      }

      .st6 {
        fill: url(#Dégradé_sans_nom_12);
      }

      .st7 {
        fill: #134489;
        fill-rule: evenodd;
      }

      .st3 {
        isolation: isolate;
        opacity: .22;
      }
    </style>
    <linearGradient id="Dégradé_sans_nom_12" data-name="Dégradé sans nom 12" x1="46.7" y1="30.09" x2="46.7" y2="63.78" gradientUnits="userSpaceOnUse">
      <stop offset="0" stop-color="#fff"/>
      <stop offset="1" stop-color="#e8e8e8"/>
    </linearGradient>
  </defs>
  <path class="st5" d="M59.73,63.96H4.27C1.93,63.96.03,62.05.03,59.72V4.25C.03,1.92,1.93,0,4.27,0h55.46c2.34,0,4.24,1.9,4.24,4.24v55.46c0,2.34-1.9,4.24-4.24,4.24h0ZM4.27.54C2.22.54.55,2.2.55,4.25v55.46c0,2.05,1.67,3.72,3.72,3.72h55.46c2.05,0,3.72-1.67,3.72-3.72V4.25c0-2.05-1.67-3.72-3.72-3.72H4.27Z"/>
  <rect class="st4" x=".29" y=".3" width="63.42" height="63.42" rx="3.98" ry="3.98"/>
  <path class="st3" d="M63.66,3.61s-1.32-2.58-3.47-2.56c-1.35,0-56.03-.04-56.03-.04,0,0-3.04.32-3.87,2.66C.87,1.33,2.79.32,4.28.3s55.72.03,55.72.03c0,0,3.18.17,3.66,3.28Z"/>
  <path class="st2" d="M46.45,38.72h-28.91c-3.7,0-6.7-3.01-6.7-6.7s3.01-6.7,6.7-6.7h28.91c3.7,0,6.7,3.01,6.7,6.7s-3.01,6.7-6.7,6.7ZM17.55,28.32c-2.04,0-3.7,1.66-3.7,3.7s1.66,3.7,3.7,3.7h28.91c2.04,0,3.7-1.66,3.7-3.7s-1.66-3.7-3.7-3.7h-28.91Z"/>
  <path class="st0" d="M17.96,29.44h19.74c1.42,0,2.58,1.16,2.58,2.58h0c0,1.42-1.16,2.58-2.58,2.58h-19.74c-1.42,0-2.58-1.16-2.58-2.58h0c0-1.42,1.16-2.58,2.58-2.58Z"/>
  <path class="st1" d="M59.84,64.01h-30.13v-.52h30.09s1.78.05,2.91-1.42c.81-1.01.76-2.2.76-2.21v-29.74h.52v29.74s.06,1.37-.87,2.53c-1.19,1.55-2.94,1.62-3.28,1.62Z"/>
  <path class="st6" d="M59.75,63.77h-30.05s-.69-12.53,10.36-24.09c10.68-10.76,21.84-9.55,23.65-9.55-.04,18.79-.07,29.69-.07,29.69,0,0,0,1.27-.83,2.39-1.13,1.51-3.05,1.57-3.05,1.57h-.01Z"/>
  <path id="path-8" class="st7" d="M46.95,53.22h1.56c.69,0,1.02-.25,1.17-.25.13,0,.23.1.23.31,0,.23-.25,1.27-.43,1.6-.13.23-.25.33-.69.33h-1.83c0,.52.02.88.03,1.06.02.64.14,1.65.34,1.93.33.48,1.34,1.02,3.35,1.02,2.59,0,4.32-.51,5.85-1.83,1.63-1.4,2.14-3.71,2.14-6.33,0-3.23-1.35-5.32-2.44-6.36-2.34-2.24-5.24-2.54-7.22-2.54-.51,0-1.53.08-1.73.18-.23.1-.32.23-.32.51v10.39h0v-.02h0ZM43.86,45.36c-.58.74-5.78,6.71-6.64,7.86h5.83v1.98h-7.9c-.31,0-.64-.1-.64-.38,0-.31.23-.53.33-.66.18-.2,10.51-12.6,10.73-12.85.41-.47.58-.58.86-.57.43.02.37.34,1.05.26.06,0,.92-.06,1.92-.06,3.18,0,7.43,0,10.2,2.9,1.27,1.32,2.47,3.43,2.47,6.46,0,3.2-1.35,5.65-2.77,7.1-1.17,1.2-3.82,2.87-8.53,2.87h-9.24c-.28,0-.36-.11-.36-.29s.08-.33.2-.33c.23,0,.79-.02,1.2-.08.97-.1,1.15-.5,1.2-1.29.08-1.38.08-3.07.08-3.07v-9.85h0Z"/>
</svg>