<?xml version="1.0" encoding="UTF-8"?>
<svg id="Calque_1" xmlns="http://www.w3.org/2000/svg" version="1.1" viewBox="0 0 64 64">
  <!-- Generator: Adobe Illustrator 30.0.0, SVG Export Plug-In . SVG Version: 2.1.1 Build 123)  -->
  <defs>
    <style>
      .st0 {
        fill: #0af;
      }

      .st1 {
        opacity: .22;
      }

      .st1, .st2 {
        fill: #fff;
      }

      .st3 {
        fill: #97dcff;
      }

      .st4 {
        fill: #63cdf7;
      }
    </style>
  </defs>
  <path class="st4" d="M59.73,63.96H4.27C1.93,63.96.03,62.05.03,59.72V4.25C.03,1.92,1.93.01,4.27.01h55.46c2.34,0,4.24,1.9,4.24,4.24v55.46c0,2.34-1.9,4.24-4.24,4.24ZM4.27.54C2.22.54.55,2.2.55,4.25v55.46c0,2.05,1.67,3.72,3.72,3.72h55.46c2.05,0,3.72-1.67,3.72-3.72V4.25c0-2.05-1.67-3.72-3.72-3.72H4.27Z"/>
  <rect class="st3" x=".29" y=".3" width="63.42" height="63.42" rx="3.98" ry="3.98"/>
  <path class="st1" d="M63.66,3.61s-1.32-2.58-3.47-2.56c-1.35.01-56.03-.04-56.03-.04,0,0-3.04.32-3.87,2.66C.87,1.33,2.79.32,4.28.3s55.72.03,55.72.03c0,0,3.18.17,3.66,3.28Z"/>
  <path class="st2" d="M46.45,38.72h-28.91c-3.7,0-6.7-3.01-6.7-6.7s3.01-6.7,6.7-6.7h28.91c3.7,0,6.7,3.01,6.7,6.7s-3.01,6.7-6.7,6.7ZM17.55,28.32c-2.04,0-3.7,1.66-3.7,3.7s1.66,3.7,3.7,3.7h28.91c2.04,0,3.7-1.66,3.7-3.7s-1.66-3.7-3.7-3.7h-28.91Z"/>
  <rect class="st0" x="15.38" y="29.44" width="24.9" height="5.16" rx="2.58" ry="2.58"/>
</svg>